<svg xmlns="http://www.w3.org/2000/svg" xmlns:xlink="http://www.w3.org/1999/xlink" viewBox="0 0 1024 1024" width="1024" height="1024" preserveAspectRatio="xMidYMid meet" style="width: 100%; height: 100%; transform: translate3d(0px, 0px, 0px); content-visibility: visible;"><defs><clipPath id="__lottie_element_244"><rect width="1024" height="1024" x="0" y="0"></rect></clipPath><linearGradient id="__lottie_element_248" spreadMethod="pad" gradientUnits="userSpaceOnUse" x1="0" y1="388" x2="0" y2="-364"><stop offset="0%" stop-color="rgb(255,179,0)"></stop><stop offset="20%" stop-color="rgb(255,190,20)"></stop><stop offset="40%" stop-color="rgb(255,202,40)"></stop></linearGradient></defs><g clip-path="url(#__lottie_element_244)"><g transform="matrix(1,0,0,1,0,0)" opacity="1" style="display: block;"><g opacity="1" transform="matrix(1,0,0,1,510.2799987792969,512.0399780273438)"><path fill="url(#__lottie_element_248)" fill-opacity="1" d=" M83.48217010498047,492.39874267578125 C-11.736457824707031,498.8997497558594 -152.7129669189453,505.8004150390625 -276.8246154785156,490.7799072265625 C-442.5741882324219,470.7442932128906 -459.3684387207031,406.4468994140625 -462.0802917480469,343.2099914550781 C-464.4006042480469,289.40704345703125 -482.4527282714844,152.3480987548828 -487.64923095703125,74.89996337890625 C-495.4794921875,-42.20687484741211 -487.893798828125,-169.5806884765625 -471.2022705078125,-225.85646057128906 C-448.2997741699219,-303.0071716308594 -370.82452392578125,-441.54901123046875 -259.09222412109375,-484.5379638671875 C-259.09222412109375,-484.5379638671875 -258.03509521484375,-484.9089050292969 -258.03509521484375,-484.9089050292969 C-243.08920288085938,-490.1495361328125 -224.7790985107422,-485.5499572753906 -210.3401641845703,-472.897216796875 C-210.3401641845703,-472.897216796875 -138.8709259033203,-410.48089599609375 -138.8709259033203,-410.48089599609375 C-121.73987579345703,-395.4665832519531 -113.89415740966797,-372.36383056640625 -118.38125610351562,-350.1084899902344 C-122.07107543945312,-331.86212158203125 -146.75938415527344,-318.6291809082031 -146.9590606689453,-318.47479248046875 C-146.9590606689453,-318.47479248046875 -166.65768432617188,-308.1768798828125 -166.65768432617188,-308.1768798828125 C-166.65768432617188,-308.1768798828125 -152.6165771484375,-304.1368713378906 -147.16282653808594,-297.2974548339844 C-143.84323120117188,-293.1353454589844 -141.32974243164062,-283.87152099609375 -145.3743896484375,-271.6485595703125 C-151.1339874267578,-254.2287139892578 -166.87391662597656,-240.37722778320312 -196.23712158203125,-230.0819549560547 C-223.788818359375,-220.42202758789062 -257.385986328125,-215.6769256591797 -284.3437805175781,-211.81930541992188 C-285.9591064453125,-211.59225463867188 -287.59808349609375,-211.1872100830078 -289.1828308105469,-210.63128662109375 C-298.542236328125,-207.3499755859375 -306.3778076171875,-198.75433349609375 -311.6935729980469,-185.87109375 C-318.5960998535156,-169.29537963867188 -333.8948059082031,-113.05672454833984 -284.98138427734375,16.53575897216797 C-257.9384765625,88.1133041381836 -207.754638671875,174.1392822265625 -207.9505157470703,174.79432678222656 C-207.9505157470703,174.79432678222656 -215.71556091308594,200.82376098632812 -215.71556091308594,200.82376098632812 C-215.71556091308594,200.82376098632812 -191.2598419189453,189.05015563964844 -191.2598419189453,189.05015563964844 C-191.1820068359375,188.9906768798828 -170.72616577148438,181.4285888671875 -138.3090362548828,170.95510864257812 C-134.18728637695312,169.60292053222656 -129.79847717285156,168.19363403320312 -125.29841613769531,166.74761962890625 C-120.47339630126953,165.19688415527344 -115.40132141113281,163.54124450683594 -110.1841812133789,161.90359497070312 C-35.683876037597656,138.50941467285156 77.80277252197266,106.03450012207031 165.7050018310547,100.02188110351562 C259.087646484375,93.64521789550781 349.3740539550781,72.80751037597656 410.05023193359375,132.3319549560547 C452.85009765625,174.3137969970703 464.12322998046875,192.66200256347656 461.4950866699219,244.3905792236328 C451.3830261230469,445.3455810546875 265.02044677734375,479.44140625 185.2065887451172,484.8915100097656 C174.0327606201172,485.6546325683594 160.94895935058594,486.6280822753906 146.3542022705078,487.78485107421875 C127.76849365234375,489.21435546875 106.62783813476562,490.818359375 83.48217010498047,492.39874267578125z"></path><path stroke-linecap="round" stroke-linejoin="miter" fill-opacity="0" stroke-miterlimit="10" stroke="rgb(236,166,0)" stroke-opacity="1" stroke-width="25" d=" M83.48217010498047,492.39874267578125 C-11.736457824707031,498.8997497558594 -152.7129669189453,505.8004150390625 -276.8246154785156,490.7799072265625 C-442.5741882324219,470.7442932128906 -459.3684387207031,406.4468994140625 -462.0802917480469,343.2099914550781 C-464.4006042480469,289.40704345703125 -482.4527282714844,152.3480987548828 -487.64923095703125,74.89996337890625 C-495.4794921875,-42.20687484741211 -487.893798828125,-169.5806884765625 -471.2022705078125,-225.85646057128906 C-448.2997741699219,-303.0071716308594 -370.82452392578125,-441.54901123046875 -259.09222412109375,-484.5379638671875 C-259.09222412109375,-484.5379638671875 -258.03509521484375,-484.9089050292969 -258.03509521484375,-484.9089050292969 C-243.08920288085938,-490.1495361328125 -224.7790985107422,-485.5499572753906 -210.3401641845703,-472.897216796875 C-210.3401641845703,-472.897216796875 -138.8709259033203,-410.48089599609375 -138.8709259033203,-410.48089599609375 C-121.73987579345703,-395.4665832519531 -113.89415740966797,-372.36383056640625 -118.38125610351562,-350.1084899902344 C-122.07107543945312,-331.86212158203125 -146.75938415527344,-318.6291809082031 -146.9590606689453,-318.47479248046875 C-146.9590606689453,-318.47479248046875 -166.65768432617188,-308.1768798828125 -166.65768432617188,-308.1768798828125 C-166.65768432617188,-308.1768798828125 -152.6165771484375,-304.1368713378906 -147.16282653808594,-297.2974548339844 C-143.84323120117188,-293.1353454589844 -141.32974243164062,-283.87152099609375 -145.3743896484375,-271.6485595703125 C-151.1339874267578,-254.2287139892578 -166.87391662597656,-240.37722778320312 -196.23712158203125,-230.0819549560547 C-223.788818359375,-220.42202758789062 -257.385986328125,-215.6769256591797 -284.3437805175781,-211.81930541992188 C-285.9591064453125,-211.59225463867188 -287.59808349609375,-211.1872100830078 -289.1828308105469,-210.63128662109375 C-298.542236328125,-207.3499755859375 -306.3778076171875,-198.75433349609375 -311.6935729980469,-185.87109375 C-318.5960998535156,-169.29537963867188 -333.8948059082031,-113.05672454833984 -284.98138427734375,16.53575897216797 C-257.9384765625,88.1133041381836 -207.754638671875,174.1392822265625 -207.9505157470703,174.79432678222656 C-207.9505157470703,174.79432678222656 -215.71556091308594,200.82376098632812 -215.71556091308594,200.82376098632812 C-215.71556091308594,200.82376098632812 -191.2598419189453,189.05015563964844 -191.2598419189453,189.05015563964844 C-191.1820068359375,188.9906768798828 -170.72616577148438,181.4285888671875 -138.3090362548828,170.95510864257812 C-134.18728637695312,169.60292053222656 -129.79847717285156,168.19363403320312 -125.29841613769531,166.74761962890625 C-120.47339630126953,165.19688415527344 -115.40132141113281,163.54124450683594 -110.1841812133789,161.90359497070312 C-35.683876037597656,138.50941467285156 77.80277252197266,106.03450012207031 165.7050018310547,100.02188110351562 C259.087646484375,93.64521789550781 349.3740539550781,72.80751037597656 410.05023193359375,132.3319549560547 C452.85009765625,174.3137969970703 464.12322998046875,192.66200256347656 461.4950866699219,244.3905792236328 C451.3830261230469,445.3455810546875 265.02044677734375,479.44140625 185.2065887451172,484.8915100097656 C174.0327606201172,485.6546325683594 160.94895935058594,486.6280822753906 146.3542022705078,487.78485107421875 C127.76849365234375,489.21435546875 106.62783813476562,490.818359375 83.48217010498047,492.39874267578125z"></path></g><g opacity="0" transform="matrix(1,0,0,1,645.4979858398438,813.3179931640625)"><path stroke-linecap="round" stroke-linejoin="miter" fill-opacity="0" stroke-miterlimit="10" stroke="rgb(236,166,0)" stroke-opacity="1" stroke-width="25" d=" M-62.65999984741211,82.48699951171875 C-62.65999984741211,82.48699951171875 -22.363000869750977,88.02799987792969 14.319999694824219,87.6050033569336 C51.00299835205078,87.18199920654297 74.00299835205078,83.18199920654297 89.16100311279297,78.51799774169922"></path></g><g opacity="1" transform="matrix(1,0,0,1,279.5,748.6510009765625)"><path stroke-linecap="round" stroke-linejoin="miter" fill-opacity="0" stroke-miterlimit="10" stroke="rgb(236,166,0)" stroke-opacity="1" stroke-width="25" d=" M17.858116149902344,-41.71378707885742 C2.4079084396362305,-18.101884841918945 -10.932466506958008,8.741924285888672 -21.5178165435791,34.4167366027832"></path></g><g opacity="1" transform="matrix(1,0,0,1,351.322998046875,258.66900634765625)"><path stroke-linecap="round" stroke-linejoin="miter" fill-opacity="0" stroke-miterlimit="10" stroke="rgb(236,166,0)" stroke-opacity="1" stroke-width="22" d=" M-203.15609741210938,11.33895206451416 C-190.3362579345703,30.410812377929688 -155.84339904785156,44.318721771240234 -126.562744140625,40.21016311645508"></path></g><g opacity="1" transform="matrix(1,0,0,1,482.6719970703125,200.92999267578125)"><path stroke-linecap="round" stroke-linejoin="miter" fill-opacity="0" stroke-miterlimit="10" stroke="rgb(236,166,0)" stroke-opacity="1" stroke-width="23" d=" M-200.80728149414062,-60.3831787109375 C-241.18545532226562,-52.011688232421875 -264.7332458496094,-35.60973358154297 -256.0346984863281,-5.297484874725342 C-245.81898498535156,30.303071975708008 -184.57862854003906,27.319677352905273 -132.30308532714844,-0.4279251992702484"></path></g></g></g></svg>