<svg xmlns="http://www.w3.org/2000/svg" xmlns:xlink="http://www.w3.org/1999/xlink" viewBox="0 0 512 512" width="512" height="512" preserveAspectRatio="xMidYMid meet" style="width: 100%; height: 100%; transform: translate3d(0px, 0px, 0px); content-visibility: visible;"><defs><clipPath id="__lottie_element_126"><rect width="512" height="512" x="0" y="0"></rect></clipPath><linearGradient id="__lottie_element_133" spreadMethod="pad" gradientUnits="userSpaceOnUse" x1="-16.12299919128418" y1="179.6540069580078" x2="-10.293035507202148" y2="-20.607927322387695"><stop offset="0%" stop-color="rgb(247,166,6)"></stop><stop offset="18%" stop-color="rgb(250,121,14)"></stop><stop offset="100%" stop-color="rgb(253,77,21)"></stop></linearGradient><linearGradient id="__lottie_element_134" spreadMethod="pad" gradientUnits="userSpaceOnUse" x1="-16.12299919128418" y1="179.6540069580078" x2="-10.293035507202148" y2="-20.607927322387695"><stop offset="0%" stop-color="rgb(247,166,6)"></stop><stop offset="18%" stop-color="rgb(250,121,14)"></stop><stop offset="100%" stop-color="rgb(253,77,21)"></stop></linearGradient><linearGradient id="__lottie_element_135" spreadMethod="pad" gradientUnits="userSpaceOnUse" x1="-16.12299919128418" y1="179.6540069580078" x2="-10.293035507202148" y2="-20.607927322387695"><stop offset="0%" stop-color="rgb(247,166,6)"></stop><stop offset="18%" stop-color="rgb(250,121,14)"></stop><stop offset="100%" stop-color="rgb(253,77,21)"></stop></linearGradient><linearGradient id="__lottie_element_136" spreadMethod="pad" gradientUnits="userSpaceOnUse" x1="-16.12299919128418" y1="179.6540069580078" x2="-10.293035507202148" y2="-20.607927322387695"><stop offset="0%" stop-color="rgb(247,166,6)"></stop><stop offset="18%" stop-color="rgb(250,121,14)"></stop><stop offset="100%" stop-color="rgb(253,77,21)"></stop></linearGradient><linearGradient id="__lottie_element_137" spreadMethod="pad" gradientUnits="userSpaceOnUse" x1="-16.12299919128418" y1="179.6540069580078" x2="-10.293035507202148" y2="-20.607927322387695"><stop offset="0%" stop-color="rgb(247,166,6)"></stop><stop offset="18%" stop-color="rgb(250,121,14)"></stop><stop offset="100%" stop-color="rgb(253,77,21)"></stop></linearGradient><linearGradient id="__lottie_element_138" spreadMethod="pad" gradientUnits="userSpaceOnUse" x1="-16.12299919128418" y1="179.6540069580078" x2="-10.293035507202148" y2="-20.607927322387695"><stop offset="0%" stop-color="rgb(247,166,6)"></stop><stop offset="18%" stop-color="rgb(250,121,14)"></stop><stop offset="100%" stop-color="rgb(253,77,21)"></stop></linearGradient><linearGradient id="__lottie_element_139" spreadMethod="pad" gradientUnits="userSpaceOnUse" x1="-16.12299919128418" y1="179.6540069580078" x2="-10.293035507202148" y2="-20.607927322387695"><stop offset="0%" stop-color="rgb(247,166,6)"></stop><stop offset="18%" stop-color="rgb(250,121,14)"></stop><stop offset="100%" stop-color="rgb(253,77,21)"></stop></linearGradient><linearGradient id="__lottie_element_140" spreadMethod="pad" gradientUnits="userSpaceOnUse" x1="-16.12299919128418" y1="179.6540069580078" x2="-10.293035507202148" y2="-20.607927322387695"><stop offset="0%" stop-color="rgb(247,166,6)"></stop><stop offset="18%" stop-color="rgb(250,121,14)"></stop><stop offset="100%" stop-color="rgb(253,77,21)"></stop></linearGradient><linearGradient id="__lottie_element_141" spreadMethod="pad" gradientUnits="userSpaceOnUse" x1="-16.12299919128418" y1="179.6540069580078" x2="-10.293035507202148" y2="-20.607927322387695"><stop offset="0%" stop-color="rgb(247,166,6)"></stop><stop offset="18%" stop-color="rgb(250,121,14)"></stop><stop offset="100%" stop-color="rgb(253,77,21)"></stop></linearGradient><linearGradient id="__lottie_element_142" spreadMethod="pad" gradientUnits="userSpaceOnUse" x1="-16.12299919128418" y1="179.6540069580078" x2="-10.293035507202148" y2="-20.607927322387695"><stop offset="0%" stop-color="rgb(247,166,6)"></stop><stop offset="18%" stop-color="rgb(250,121,14)"></stop><stop offset="100%" stop-color="rgb(253,77,21)"></stop></linearGradient><linearGradient id="__lottie_element_143" spreadMethod="pad" gradientUnits="userSpaceOnUse" x1="-16.12299919128418" y1="179.6540069580078" x2="-10.293035507202148" y2="-20.607927322387695"><stop offset="0%" stop-color="rgb(247,166,6)"></stop><stop offset="18%" stop-color="rgb(250,121,14)"></stop><stop offset="100%" stop-color="rgb(253,77,21)"></stop></linearGradient><linearGradient id="__lottie_element_144" spreadMethod="pad" gradientUnits="userSpaceOnUse" x1="-16.12299919128418" y1="179.6540069580078" x2="-10.293035507202148" y2="-20.607927322387695"><stop offset="0%" stop-color="rgb(247,166,6)"></stop><stop offset="18%" stop-color="rgb(250,121,14)"></stop><stop offset="100%" stop-color="rgb(253,77,21)"></stop></linearGradient><linearGradient id="__lottie_element_145" spreadMethod="pad" gradientUnits="userSpaceOnUse" x1="-16.12299919128418" y1="179.6540069580078" x2="-10.293035507202148" y2="-20.607927322387695"><stop offset="0%" stop-color="rgb(247,166,6)"></stop><stop offset="18%" stop-color="rgb(250,121,14)"></stop><stop offset="100%" stop-color="rgb(253,77,21)"></stop></linearGradient><linearGradient id="__lottie_element_146" spreadMethod="pad" gradientUnits="userSpaceOnUse" x1="-16.12299919128418" y1="179.6540069580078" x2="-10.293035507202148" y2="-20.607927322387695"><stop offset="0%" stop-color="rgb(247,166,6)"></stop><stop offset="18%" stop-color="rgb(250,121,14)"></stop><stop offset="100%" stop-color="rgb(253,77,21)"></stop></linearGradient><linearGradient id="__lottie_element_147" spreadMethod="pad" gradientUnits="userSpaceOnUse" x1="-16.12299919128418" y1="179.6540069580078" x2="-10.293035507202148" y2="-20.607927322387695"><stop offset="0%" stop-color="rgb(247,166,6)"></stop><stop offset="18%" stop-color="rgb(250,121,14)"></stop><stop offset="100%" stop-color="rgb(253,77,21)"></stop></linearGradient><linearGradient id="__lottie_element_148" spreadMethod="pad" gradientUnits="userSpaceOnUse" x1="-16.12299919128418" y1="179.6540069580078" x2="-10.293035507202148" y2="-20.607927322387695"><stop offset="0%" stop-color="rgb(247,166,6)"></stop><stop offset="18%" stop-color="rgb(250,121,14)"></stop><stop offset="100%" stop-color="rgb(253,77,21)"></stop></linearGradient><linearGradient id="__lottie_element_151" spreadMethod="pad" gradientUnits="userSpaceOnUse" x1="-13.123000144958496" y1="159.6540069580078" x2="-9.432116508483887" y2="-11.137811660766602"><stop offset="0%" stop-color="rgb(255,233,61)"></stop><stop offset="27%" stop-color="rgb(255,188,56)"></stop><stop offset="100%" stop-color="rgb(255,144,51)"></stop></linearGradient><linearGradient id="__lottie_element_152" spreadMethod="pad" gradientUnits="userSpaceOnUse" x1="-13.123000144958496" y1="159.6540069580078" x2="-9.432116508483887" y2="-11.137811660766602"><stop offset="0%" stop-color="rgb(255,233,61)"></stop><stop offset="27%" stop-color="rgb(255,188,56)"></stop><stop offset="100%" stop-color="rgb(255,144,51)"></stop></linearGradient><linearGradient id="__lottie_element_153" spreadMethod="pad" gradientUnits="userSpaceOnUse" x1="-13.123000144958496" y1="159.6540069580078" x2="-9.432116508483887" y2="-11.137811660766602"><stop offset="0%" stop-color="rgb(255,233,61)"></stop><stop offset="27%" stop-color="rgb(255,188,56)"></stop><stop offset="100%" stop-color="rgb(255,144,51)"></stop></linearGradient><linearGradient id="__lottie_element_154" spreadMethod="pad" gradientUnits="userSpaceOnUse" x1="-13.123000144958496" y1="159.6540069580078" x2="-9.432116508483887" y2="-11.137811660766602"><stop offset="0%" stop-color="rgb(255,233,61)"></stop><stop offset="27%" stop-color="rgb(255,188,56)"></stop><stop offset="100%" stop-color="rgb(255,144,51)"></stop></linearGradient><linearGradient id="__lottie_element_155" spreadMethod="pad" gradientUnits="userSpaceOnUse" x1="-13.123000144958496" y1="159.6540069580078" x2="-9.432116508483887" y2="-11.137811660766602"><stop offset="0%" stop-color="rgb(255,233,61)"></stop><stop offset="27%" stop-color="rgb(255,188,56)"></stop><stop offset="100%" stop-color="rgb(255,144,51)"></stop></linearGradient><linearGradient id="__lottie_element_156" spreadMethod="pad" gradientUnits="userSpaceOnUse" x1="-13.123000144958496" y1="159.6540069580078" x2="-9.432116508483887" y2="-11.137811660766602"><stop offset="0%" stop-color="rgb(255,233,61)"></stop><stop offset="27%" stop-color="rgb(255,188,56)"></stop><stop offset="100%" stop-color="rgb(255,144,51)"></stop></linearGradient><linearGradient id="__lottie_element_157" spreadMethod="pad" gradientUnits="userSpaceOnUse" x1="-13.123000144958496" y1="159.6540069580078" x2="-9.432116508483887" y2="-11.137811660766602"><stop offset="0%" stop-color="rgb(255,233,61)"></stop><stop offset="27%" stop-color="rgb(255,188,56)"></stop><stop offset="100%" stop-color="rgb(255,144,51)"></stop></linearGradient><linearGradient id="__lottie_element_158" spreadMethod="pad" gradientUnits="userSpaceOnUse" x1="-13.123000144958496" y1="159.6540069580078" x2="-9.432116508483887" y2="-11.137811660766602"><stop offset="0%" stop-color="rgb(255,233,61)"></stop><stop offset="27%" stop-color="rgb(255,188,56)"></stop><stop offset="100%" stop-color="rgb(255,144,51)"></stop></linearGradient><linearGradient id="__lottie_element_159" spreadMethod="pad" gradientUnits="userSpaceOnUse" x1="-13.123000144958496" y1="159.6540069580078" x2="-9.432116508483887" y2="-11.137811660766602"><stop offset="0%" stop-color="rgb(255,233,61)"></stop><stop offset="27%" stop-color="rgb(255,188,56)"></stop><stop offset="100%" stop-color="rgb(255,144,51)"></stop></linearGradient><linearGradient id="__lottie_element_160" spreadMethod="pad" gradientUnits="userSpaceOnUse" x1="-13.123000144958496" y1="159.6540069580078" x2="-9.432116508483887" y2="-11.137811660766602"><stop offset="0%" stop-color="rgb(255,233,61)"></stop><stop offset="27%" stop-color="rgb(255,188,56)"></stop><stop offset="100%" stop-color="rgb(255,144,51)"></stop></linearGradient><linearGradient id="__lottie_element_161" spreadMethod="pad" gradientUnits="userSpaceOnUse" x1="-13.123000144958496" y1="159.6540069580078" x2="-9.432116508483887" y2="-11.137811660766602"><stop offset="0%" stop-color="rgb(255,233,61)"></stop><stop offset="27%" stop-color="rgb(255,188,56)"></stop><stop offset="100%" stop-color="rgb(255,144,51)"></stop></linearGradient><linearGradient id="__lottie_element_162" spreadMethod="pad" gradientUnits="userSpaceOnUse" x1="-13.123000144958496" y1="159.6540069580078" x2="-9.432116508483887" y2="-11.137811660766602"><stop offset="0%" stop-color="rgb(255,233,61)"></stop><stop offset="27%" stop-color="rgb(255,188,56)"></stop><stop offset="100%" stop-color="rgb(255,144,51)"></stop></linearGradient><linearGradient id="__lottie_element_163" spreadMethod="pad" gradientUnits="userSpaceOnUse" x1="-13.123000144958496" y1="159.6540069580078" x2="-9.432116508483887" y2="-11.137811660766602"><stop offset="0%" stop-color="rgb(255,233,61)"></stop><stop offset="27%" stop-color="rgb(255,188,56)"></stop><stop offset="100%" stop-color="rgb(255,144,51)"></stop></linearGradient><radialGradient id="__lottie_element_166" spreadMethod="pad" gradientUnits="userSpaceOnUse" cx="-6.123000144958496" cy="134.6540069580078" r="133.7640614475352" fx="-6.123000144958496" fy="134.6540069580078"><stop offset="12%" stop-color="rgb(254,254,229)"></stop><stop offset="54%" stop-color="rgb(254,243,152)"></stop><stop offset="81%" stop-color="rgb(255,231,76)"></stop></radialGradient><radialGradient id="__lottie_element_167" spreadMethod="pad" gradientUnits="userSpaceOnUse" cx="-6.123000144958496" cy="134.6540069580078" r="133.7640614475352" fx="-6.123000144958496" fy="134.6540069580078"><stop offset="12%" stop-color="rgb(254,254,229)"></stop><stop offset="54%" stop-color="rgb(254,243,152)"></stop><stop offset="81%" stop-color="rgb(255,231,76)"></stop></radialGradient><radialGradient id="__lottie_element_168" spreadMethod="pad" gradientUnits="userSpaceOnUse" cx="-6.123000144958496" cy="134.6540069580078" r="133.7640614475352" fx="-6.123000144958496" fy="134.6540069580078"><stop offset="12%" stop-color="rgb(254,254,229)"></stop><stop offset="54%" stop-color="rgb(254,243,152)"></stop><stop offset="81%" stop-color="rgb(255,231,76)"></stop></radialGradient><radialGradient id="__lottie_element_169" spreadMethod="pad" gradientUnits="userSpaceOnUse" cx="-6.123000144958496" cy="134.6540069580078" r="133.7640614475352" fx="-6.123000144958496" fy="134.6540069580078"><stop offset="12%" stop-color="rgb(254,254,229)"></stop><stop offset="54%" stop-color="rgb(254,243,152)"></stop><stop offset="81%" stop-color="rgb(255,231,76)"></stop></radialGradient><radialGradient id="__lottie_element_170" spreadMethod="pad" gradientUnits="userSpaceOnUse" cx="-6.123000144958496" cy="134.6540069580078" r="133.7640614475352" fx="-6.123000144958496" fy="134.6540069580078"><stop offset="12%" stop-color="rgb(254,254,229)"></stop><stop offset="54%" stop-color="rgb(254,243,152)"></stop><stop offset="81%" stop-color="rgb(255,231,76)"></stop></radialGradient><radialGradient id="__lottie_element_171" spreadMethod="pad" gradientUnits="userSpaceOnUse" cx="-6.123000144958496" cy="134.6540069580078" r="133.7640614475352" fx="-6.123000144958496" fy="134.6540069580078"><stop offset="12%" stop-color="rgb(254,254,229)"></stop><stop offset="54%" stop-color="rgb(254,243,152)"></stop><stop offset="81%" stop-color="rgb(255,231,76)"></stop></radialGradient><radialGradient id="__lottie_element_172" spreadMethod="pad" gradientUnits="userSpaceOnUse" cx="-6.123000144958496" cy="134.6540069580078" r="133.7640614475352" fx="-6.123000144958496" fy="134.6540069580078"><stop offset="12%" stop-color="rgb(254,254,229)"></stop><stop offset="54%" stop-color="rgb(254,243,152)"></stop><stop offset="81%" stop-color="rgb(255,231,76)"></stop></radialGradient><radialGradient id="__lottie_element_173" spreadMethod="pad" gradientUnits="userSpaceOnUse" cx="-6.123000144958496" cy="134.6540069580078" r="133.7640614475352" fx="-6.123000144958496" fy="134.6540069580078"><stop offset="12%" stop-color="rgb(254,254,229)"></stop><stop offset="54%" stop-color="rgb(254,243,152)"></stop><stop offset="81%" stop-color="rgb(255,231,76)"></stop></radialGradient><radialGradient id="__lottie_element_174" spreadMethod="pad" gradientUnits="userSpaceOnUse" cx="-6.123000144958496" cy="134.6540069580078" r="133.7640614475352" fx="-6.123000144958496" fy="134.6540069580078"><stop offset="12%" stop-color="rgb(254,254,229)"></stop><stop offset="54%" stop-color="rgb(254,243,152)"></stop><stop offset="81%" stop-color="rgb(255,231,76)"></stop></radialGradient><radialGradient id="__lottie_element_175" spreadMethod="pad" gradientUnits="userSpaceOnUse" cx="-6.123000144958496" cy="134.6540069580078" r="133.7640614475352" fx="-6.123000144958496" fy="134.6540069580078"><stop offset="12%" stop-color="rgb(254,254,229)"></stop><stop offset="54%" stop-color="rgb(254,243,152)"></stop><stop offset="81%" stop-color="rgb(255,231,76)"></stop></radialGradient><radialGradient id="__lottie_element_176" spreadMethod="pad" gradientUnits="userSpaceOnUse" cx="-6.123000144958496" cy="134.6540069580078" r="133.7640614475352" fx="-6.123000144958496" fy="134.6540069580078"><stop offset="12%" stop-color="rgb(254,254,229)"></stop><stop offset="54%" stop-color="rgb(254,243,152)"></stop><stop offset="81%" stop-color="rgb(255,231,76)"></stop></radialGradient><radialGradient id="__lottie_element_177" spreadMethod="pad" gradientUnits="userSpaceOnUse" cx="-6.123000144958496" cy="134.6540069580078" r="133.7640614475352" fx="-6.123000144958496" fy="134.6540069580078"><stop offset="12%" stop-color="rgb(254,254,229)"></stop><stop offset="54%" stop-color="rgb(254,243,152)"></stop><stop offset="81%" stop-color="rgb(255,231,76)"></stop></radialGradient><radialGradient id="__lottie_element_178" spreadMethod="pad" gradientUnits="userSpaceOnUse" cx="-6.123000144958496" cy="134.6540069580078" r="133.7640614475352" fx="-6.123000144958496" fy="134.6540069580078"><stop offset="12%" stop-color="rgb(254,254,229)"></stop><stop offset="54%" stop-color="rgb(254,243,152)"></stop><stop offset="81%" stop-color="rgb(255,231,76)"></stop></radialGradient><linearGradient id="__lottie_element_182" spreadMethod="pad" gradientUnits="userSpaceOnUse" x1="-13.123000144958496" y1="158.6540069580078" x2="0.03799999877810478" y2="-137.6929931640625"><stop offset="0%" stop-color="rgb(255,228,71)"></stop><stop offset="72%" stop-color="rgb(255,197,70)"></stop><stop offset="100%" stop-color="rgb(255,165,68)"></stop></linearGradient><linearGradient id="__lottie_element_192" spreadMethod="pad" gradientUnits="userSpaceOnUse" x1="-16.12299919128418" y1="179.6540069580078" x2="-3.330195188522339" y2="-99.5201187133789"><stop offset="0%" stop-color="rgb(247,166,6)"></stop><stop offset="18%" stop-color="rgb(250,121,14)"></stop><stop offset="100%" stop-color="rgb(253,77,21)"></stop></linearGradient><linearGradient id="__lottie_element_196" spreadMethod="pad" gradientUnits="userSpaceOnUse" x1="-16.12299919128418" y1="179.6540069580078" x2="-11.961047172546387" y2="-1.703802466392517"><stop offset="0%" stop-color="rgb(247,166,6)"></stop><stop offset="18%" stop-color="rgb(250,121,14)"></stop><stop offset="100%" stop-color="rgb(253,77,21)"></stop></linearGradient><linearGradient id="__lottie_element_200" spreadMethod="pad" gradientUnits="userSpaceOnUse" x1="-16.12299919128418" y1="179.6540069580078" x2="0.03799999877810478" y2="-137.6929931640625"><stop offset="0%" stop-color="rgb(247,166,6)"></stop><stop offset="18%" stop-color="rgb(250,121,14)"></stop><stop offset="100%" stop-color="rgb(253,77,21)"></stop></linearGradient><linearGradient id="__lottie_element_204" spreadMethod="pad" gradientUnits="userSpaceOnUse" x1="-16.12299919128418" y1="179.6540069580078" x2="-11.951513290405273" y2="-1.8118449449539185"><stop offset="0%" stop-color="rgb(247,166,6)"></stop><stop offset="18%" stop-color="rgb(250,121,14)"></stop><stop offset="100%" stop-color="rgb(253,77,21)"></stop></linearGradient><linearGradient id="__lottie_element_208" spreadMethod="pad" gradientUnits="userSpaceOnUse" x1="-16.12299919128418" y1="179.6540069580078" x2="0.03799999877810478" y2="-137.6929931640625"><stop offset="0%" stop-color="rgb(247,166,6)"></stop><stop offset="18%" stop-color="rgb(250,121,14)"></stop><stop offset="100%" stop-color="rgb(253,77,21)"></stop></linearGradient><linearGradient id="__lottie_element_212" spreadMethod="pad" gradientUnits="userSpaceOnUse" x1="-16.12299919128418" y1="179.6540069580078" x2="0.03799999877810478" y2="-137.6929931640625"><stop offset="0%" stop-color="rgb(247,166,6)"></stop><stop offset="18%" stop-color="rgb(250,121,14)"></stop><stop offset="100%" stop-color="rgb(253,77,21)"></stop></linearGradient><linearGradient id="__lottie_element_216" spreadMethod="pad" gradientUnits="userSpaceOnUse" x1="-16.12299919128418" y1="179.6540069580078" x2="0.03799999877810478" y2="-137.6929931640625"><stop offset="0%" stop-color="rgb(247,166,6)"></stop><stop offset="18%" stop-color="rgb(250,121,14)"></stop><stop offset="100%" stop-color="rgb(253,77,21)"></stop></linearGradient><linearGradient id="__lottie_element_220" spreadMethod="pad" gradientUnits="userSpaceOnUse" x1="-16.12299919128418" y1="179.6540069580078" x2="0.03799999877810478" y2="-137.6929931640625"><stop offset="0%" stop-color="rgb(247,166,6)"></stop><stop offset="18%" stop-color="rgb(250,121,14)"></stop><stop offset="100%" stop-color="rgb(253,77,21)"></stop></linearGradient><linearGradient id="__lottie_element_224" spreadMethod="pad" gradientUnits="userSpaceOnUse" x1="-16.12299919128418" y1="179.6540069580078" x2="0.03799999877810478" y2="-137.6929931640625"><stop offset="0%" stop-color="rgb(247,166,6)"></stop><stop offset="18%" stop-color="rgb(250,121,14)"></stop><stop offset="100%" stop-color="rgb(253,77,21)"></stop></linearGradient><linearGradient id="__lottie_element_228" spreadMethod="pad" gradientUnits="userSpaceOnUse" x1="-16.12299919128418" y1="179.6540069580078" x2="0.03799999877810478" y2="-137.6929931640625"><stop offset="0%" stop-color="rgb(247,166,6)"></stop><stop offset="18%" stop-color="rgb(250,121,14)"></stop><stop offset="100%" stop-color="rgb(253,77,21)"></stop></linearGradient></defs><g clip-path="url(#__lottie_element_126)"><g transform="matrix(0.983503520488739,0,0,1.0164965391159058,255.81854248046875,282.8326721191406)" opacity="1" style="display: block;"><g opacity="1" transform="matrix(1,0,0,1,0,0.5)"><path stroke-linecap="round" stroke-linejoin="round" fill-opacity="0" stroke="rgb(186,2,2)" stroke-opacity="1" stroke-width="16" d=" M-7.883965969085693,-198.6036834716797 C-75.72393035888672,-77.44275665283203 -184.0782470703125,-29.746824264526367 -11,192 C150.22137451171875,-0.7926207184791565 24.56169319152832,-106.58969116210938 -7.883965969085693,-198.6036834716797z"></path></g><g opacity="1" transform="matrix(1,0,0,1,0,0.5)"><path stroke-linecap="round" stroke-linejoin="round" fill-opacity="0" stroke="rgb(186,2,2)" stroke-opacity="1" stroke-width="16" d=" M-104.13079071044922,-61.97900390625 C-157.59478759765625,6.898859977722168 -109.67748260498047,142.0648956298828 -11,192 C81.5,-23.5 -116.84351348876953,48.72837829589844 -104.13079071044922,-61.97900390625z"></path></g><g opacity="1" transform="matrix(1,0,0,1,0,0.5)"><path stroke-linecap="round" stroke-linejoin="round" fill-opacity="0" stroke="rgb(186,2,2)" stroke-opacity="1" stroke-width="16" d=" M-104.13079071044922,-61.97900390625 C-72.57157135009766,-52.06424331665039 -110.07189178466797,-119.8409652709961 -7.914220333099365,-198.37985229492188 C-39.27326583862305,69.18736267089844 -141.82044982910156,50.668582916259766 -104.13079071044922,-61.97900390625z"></path></g><g opacity="1" transform="matrix(1,0,0,1,0,0.5)"><path stroke-linecap="round" stroke-linejoin="round" fill-opacity="0" stroke="rgb(186,2,2)" stroke-opacity="1" stroke-width="16" d=" M-133.73480224609375,78.24649810791016 C-155.04579162597656,121.76304626464844 -86.00444793701172,192 -11,192 C20.527347564697266,63.733150482177734 -115.83396911621094,130.1822509765625 -133.73480224609375,78.24649810791016z"></path></g><g opacity="1" transform="matrix(1,0,0,1,0,0.5)"><path stroke-linecap="round" stroke-linejoin="round" fill-opacity="0" stroke="rgb(186,2,2)" stroke-opacity="1" stroke-width="16" d=" M-90.91957092285156,157.6278839111328 C-71.42143249511719,166.97232055664062 -65,192 -11,192 C-21.612913131713867,147.56234741210938 -66.90998077392578,155.36863708496094 -90.91957092285156,157.6278839111328z"></path></g><g opacity="1" transform="matrix(1,0,0,1,0,0.5)"><path stroke-linecap="round" stroke-linejoin="round" fill-opacity="0" stroke="rgb(186,2,2)" stroke-opacity="1" stroke-width="16" d=" M-63.375999450683594,164.16700744628906 C-41.5,164 -65,192 -11,192 C-23,165 -46.5,152 -63.375999450683594,164.16700744628906z"></path></g><g opacity="1" transform="matrix(1,0,0,1,0,0.5)"><path stroke-linecap="round" stroke-linejoin="round" fill-opacity="0" stroke="rgb(186,2,2)" stroke-opacity="1" stroke-width="16" d=" M42.82596206665039,-147.29006958007812 C13.622138023376465,-35.18448257446289 -145.74395751953125,17.944656372070312 -11,192 C170.746826171875,57.161582946777344 85.53434753417969,-87.27162170410156 42.82596206665039,-147.29006958007812z"></path></g><g opacity="1" transform="matrix(1,0,0,1,0,0.5)"><path stroke-linecap="round" stroke-linejoin="round" fill-opacity="0" stroke="rgb(186,2,2)" stroke-opacity="1" stroke-width="16" d=" M140.60569763183594,26.105682373046875 C108.79261779785156,51.01844787597656 -10.924538612365723,43.10679626464844 -11,192 C108.61769104003906,182.0922393798828 148.3085174560547,98.62213897705078 140.60569763183594,26.105682373046875z"></path></g><g opacity="1" transform="matrix(1,0,0,1,0,0.5)"><path stroke-linecap="round" stroke-linejoin="round" fill-opacity="0" stroke="rgb(186,2,2)" stroke-opacity="1" stroke-width="16" d=" M76.50240325927734,160.3463897705078 C41.11052703857422,145.26495361328125 -11.278228759765625,159.19834899902344 -11.469670295715332,191.53033447265625 C44.011714935302734,191.53033447265625 65.72677612304688,154.9009246826172 76.50240325927734,160.3463897705078z"></path></g><g opacity="1" transform="matrix(1,0,0,1,0,0.5)"><path stroke-linecap="round" stroke-linejoin="round" fill-opacity="0" stroke="rgb(186,2,2)" stroke-opacity="1" stroke-width="16" d=" M-133.77525329589844,78.23262023925781 C-124.23314666748047,91.33403778076172 -112.11336517333984,100.08780670166016 -111.96953582763672,84.12242889404297 C-116.50630950927734,57.35599136352539 -152.69647216796875,5.451017379760742 -104.13789367675781,-61.58269119262695 C-31.12913703918457,110.41030883789062 -96.80729675292969,163.0211181640625 -133.77525329589844,78.23262023925781z"></path></g><g opacity="1" transform="matrix(1,0,0,1,0,0.5)"><path stroke-linecap="round" stroke-linejoin="round" fill-opacity="0" stroke="rgb(186,2,2)" stroke-opacity="1" stroke-width="16" d=" M-90.986572265625,157.45394897460938 C-66.97120666503906,169.0277862548828 -143.42588806152344,134.55789184570312 -133.64923095703125,78.14568328857422 C-137.83285522460938,100.81950378417969 -66.08889770507812,184.57135009765625 -90.986572265625,157.45394897460938z"></path></g><g opacity="1" transform="matrix(1,0,0,1,0,0.5)"><path stroke-linecap="round" stroke-linejoin="round" fill-opacity="0" stroke="rgb(186,2,2)" stroke-opacity="1" stroke-width="16" d=" M-39.94300079345703,164.8939971923828 C-37.5,174 -3.75,191.75 -43.95800018310547,166.25 C-36.5,170 -60,162 -39.94300079345703,164.8939971923828z"></path></g><g opacity="1" transform="matrix(1,0,0,1,0,0.5)"><path stroke-linecap="round" stroke-linejoin="round" fill-opacity="0" stroke="rgb(186,2,2)" stroke-opacity="1" stroke-width="16" d=" M44.474891662597656,-145.90509033203125 C40.673763275146484,-142.11492919921875 37.036407470703125,-139.2138214111328 33.57387161254883,-137.09303283691406 C-0.54368656873703,-116.19823455810547 -17.71848487854004,-171.09356689453125 -7.611910820007324,-198.49600219726562 C-82.86302185058594,-23.34810447692871 51.81135559082031,-82.82666015625 44.474891662597656,-145.90509033203125z"></path></g><g opacity="1" transform="matrix(1,0,0,1,0,0.5)"><path stroke-linecap="round" stroke-linejoin="round" fill-opacity="0" stroke="rgb(186,2,2)" stroke-opacity="1" stroke-width="16" d=" M140.60569763183594,26.105682373046875 C128.277099609375,37.08648681640625 114.47577667236328,43.2515869140625 102.59403991699219,38.55113983154297 C66.15430450439453,21.8953857421875 97.25302124023438,-111.83061218261719 42.75497055053711,-146.7110595703125 C28.99048614501953,-11.260153770446777 89.14693450927734,165.0279998779297 140.60569763183594,26.105682373046875z"></path></g><g opacity="1" transform="matrix(1,0,0,1,0,0.5)"><path stroke-linecap="round" stroke-linejoin="round" fill-opacity="0" stroke="rgb(186,2,2)" stroke-opacity="1" stroke-width="16" d=" M76.79096984863281,160.0034942626953 C73.31211853027344,158.0859375 72.45879364013672,155.80419921875 73.24092864990234,152.8893585205078 C76.05115509033203,136.69949340820312 118.134765625,93.3033218383789 140.96661376953125,26.93575668334961 C81.60813903808594,70.34574127197266 -4.465328693389893,173.4214324951172 76.79096984863281,160.0034942626953z"></path></g></g><g style="display: none;" transform="matrix(0.999997615814209,0,0,1.000002384185791,255.99996948242188,285.9995422363281)" opacity="1"><g opacity="1" transform="matrix(1,0,0,1,0,0.5)"><path fill="url(#__lottie_element_228)" fill-opacity="1" d=" M-116.04674530029297,-122.46347045898438 C-124.00374603271484,-96.96576690673828 -157.49798583984375,-83.4660415649414 -140.99949645996094,-49.96744155883789 C-122.49949645996094,-63.46744155883789 -110.50218200683594,-90.96279907226562 -116.04674530029297,-122.46347045898438z"></path><path stroke-linecap="round" stroke-linejoin="round" fill-opacity="0" stroke="rgb(186,2,2)" stroke-opacity="1" stroke-width="8" d=" M-116.04674530029297,-122.46347045898438 C-124.00374603271484,-96.96576690673828 -157.49798583984375,-83.4660415649414 -140.99949645996094,-49.96744155883789 C-122.49949645996094,-63.46744155883789 -110.50218200683594,-90.96279907226562 -116.04674530029297,-122.46347045898438z"></path></g></g><g transform="matrix(1.0992320775985718,0,0,0.900767982006073,257.091552734375,305.05255126953125)" opacity="1" style="display: none;"><g opacity="1" transform="matrix(1,0,0,1,0,0.5)"><path fill="url(#__lottie_element_224)" fill-opacity="1" d=" M-128.837646484375,-214.77310180664062 C-129.20521545410156,-217.21923828125 -132.43446350097656,-219.07789611816406 -136.68692016601562,-212.85470581054688 C-131.50628662109375,-218.56105041503906 -129.0236053466797,-217.1426544189453 -128.837646484375,-214.77310180664062z"></path><path stroke-linecap="round" stroke-linejoin="round" fill-opacity="0" stroke="rgb(186,2,2)" stroke-opacity="1" stroke-width="8" d=" M-128.837646484375,-214.77310180664062 C-129.20521545410156,-217.21923828125 -132.43446350097656,-219.07789611816406 -136.68692016601562,-212.85470581054688 C-131.50628662109375,-218.56105041503906 -129.0236053466797,-217.1426544189453 -128.837646484375,-214.77310180664062z"></path></g></g><g style="display: none;" transform="matrix(0.9943587183952332,0,0,0.9959529638290405,255.9379425048828,286.77703857421875)" opacity="1"><g opacity="1" transform="matrix(1,0,0,1,0,0.5)"><path stroke-linecap="round" stroke-linejoin="round" fill-opacity="0" stroke="rgb(186,2,2)" stroke-opacity="1" stroke-width="16" d=" M31.689796447753906,-234.0670623779297 C29.47570037841797,-236.5081329345703 33.640079498291016,-231.31747436523438 36.68436813354492,-225.95310974121094 C37.227569580078125,-227.1637725830078 35.588539123535156,-230.62158203125 31.689796447753906,-234.0670623779297z"></path><path fill="url(#__lottie_element_220)" fill-opacity="1" d=" M31.689796447753906,-234.0670623779297 C29.47570037841797,-236.5081329345703 33.640079498291016,-231.31747436523438 36.68436813354492,-225.95310974121094 C37.227569580078125,-227.1637725830078 35.588539123535156,-230.62158203125 31.689796447753906,-234.0670623779297z"></path></g></g><g style="display: none;" transform="matrix(0.9887673854827881,0,0,0.9915065765380859,255.87643432617188,287.6307373046875)" opacity="1"><g opacity="1" transform="matrix(1,0,0,1,0,0.5)"><path stroke-linecap="round" stroke-linejoin="round" fill-opacity="0" stroke="rgb(186,2,2)" stroke-opacity="1" stroke-width="16" d=" M31.49596405029297,-234.66075134277344 C28.198001861572266,-237.63177490234375 24.558048248291016,-239.7978515625 24.78514289855957,-239.37277221679688 C27.877609252929688,-237.12522888183594 33.686790466308594,-232.55917358398438 35.90241241455078,-227.49124145507812 C36.04113006591797,-228.57635498046875 34.19133377075195,-231.20086669921875 31.49596405029297,-234.66075134277344z"></path><path fill="url(#__lottie_element_216)" fill-opacity="1" d=" M31.49596405029297,-234.66075134277344 C28.198001861572266,-237.63177490234375 24.558048248291016,-239.7978515625 24.78514289855957,-239.37277221679688 C27.877609252929688,-237.12522888183594 33.686790466308594,-232.55917358398438 35.90241241455078,-227.49124145507812 C36.04113006591797,-228.57635498046875 34.19133377075195,-231.20086669921875 31.49596405029297,-234.66075134277344z"></path></g></g><g transform="matrix(0.932837963104248,0,0,1.0692071914672852,255.26121520996094,272.71221923828125)" opacity="1" style="display: none;"><g opacity="1" transform="matrix(1,0,0,1,0,0.5)"><path stroke-linecap="round" stroke-linejoin="round" fill-opacity="0" stroke="rgb(186,2,2)" stroke-opacity="1" stroke-width="16" d=" M-38.918975830078125,-220.50454711914062 C-40.48978805541992,-218.541748046875 -42.13557434082031,-215.7140350341797 -41.241153717041016,-215.75030517578125 C-39.96484375,-217.58953857421875 -37.37769317626953,-221.00308227539062 -34.46693420410156,-222.320556640625 C-34.68665313720703,-222.78599548339844 -36.47560119628906,-222.26597595214844 -38.918975830078125,-220.50454711914062z"></path><path fill="url(#__lottie_element_212)" fill-opacity="1" d=" M-38.918975830078125,-220.50454711914062 C-40.48978805541992,-218.541748046875 -42.13557434082031,-215.7140350341797 -41.241153717041016,-215.75030517578125 C-39.96484375,-217.58953857421875 -37.37769317626953,-221.00308227539062 -34.46693420410156,-222.320556640625 C-34.68665313720703,-222.78599548339844 -36.47560119628906,-222.26597595214844 -38.918975830078125,-220.50454711914062z"></path></g></g><g style="display: none;" transform="matrix(1.0637325048446655,0,0,0.9296733736991882,256.7010498046875,299.5027160644531)" opacity="1"><g opacity="1" transform="matrix(1,0,0,1,0,0.5)"><path stroke-linecap="round" stroke-linejoin="round" fill-opacity="0" stroke="rgb(186,2,2)" stroke-opacity="1" stroke-width="16" d=" M-51.58666229248047,-292.59478759765625 C-51.802406311035156,-292.10186767578125 -52.04301834106445,-291.6119384765625 -51.689727783203125,-291.4932861328125 C-51.55877685546875,-291.8124084472656 -51.28374099731445,-292.3978576660156 -50.89593505859375,-292.6772155761719 C-50.81349563598633,-292.87322998046875 -51.119415283203125,-292.7850646972656 -51.58666229248047,-292.59478759765625z"></path><path fill="url(#__lottie_element_208)" fill-opacity="1" d=" M-51.58666229248047,-292.59478759765625 C-51.802406311035156,-292.10186767578125 -52.04301834106445,-291.6119384765625 -51.689727783203125,-291.4932861328125 C-51.55877685546875,-291.8124084472656 -51.28374099731445,-292.3978576660156 -50.89593505859375,-292.6772155761719 C-50.81349563598633,-292.87322998046875 -51.119415283203125,-292.7850646972656 -51.58666229248047,-292.59478759765625z"></path></g></g><g style="display: none;" transform="matrix(0.9809170365333557,0,0,1.0083624124526978,255.7900848388672,284.3944396972656)" opacity="1"><g opacity="1" transform="matrix(1,0,0,1,0,0.5)"><path stroke-linecap="round" stroke-linejoin="round" fill-opacity="0" stroke="rgb(186,2,2)" stroke-opacity="1" stroke-width="16" d=" M-82.54424285888672,-268.69342041015625 C-83.95541381835938,-267.3999328613281 -86.6500015258789,-266.08538818359375 -85.50928497314453,-264.7677307128906 C-84.23224639892578,-265.73931884765625 -81.68647003173828,-267.4774169921875 -79.38308715820312,-267.72003173828125 C-78.80545043945312,-269.12860107421875 -80.57084655761719,-269.05609130859375 -82.54424285888672,-268.69342041015625z"></path><path fill="url(#__lottie_element_204)" fill-opacity="1" d=" M-82.54424285888672,-268.69342041015625 C-83.95541381835938,-267.3999328613281 -86.6500015258789,-266.08538818359375 -85.50928497314453,-264.7677307128906 C-84.23224639892578,-265.73931884765625 -81.68647003173828,-267.4774169921875 -79.38308715820312,-267.72003173828125 C-78.80545043945312,-269.12860107421875 -80.57084655761719,-269.05609130859375 -82.54424285888672,-268.69342041015625z"></path></g></g><g style="display: none;" transform="matrix(1.0141226053237915,0,0,0.975886344909668,256.15533447265625,290.62982177734375)" opacity="1"><g opacity="1" transform="matrix(1,0,0,1,0,0.5)"><path fill="url(#__lottie_element_200)" fill-opacity="1" d=" M-129.44232177734375,-215.4104766845703 C-129.57571411132812,-218.22219848632812 -132.29469299316406,-220.14044189453125 -136.6822967529297,-214.4021759033203 C-131.7674560546875,-220.07711791992188 -129.5593719482422,-218.2971954345703 -129.44232177734375,-215.4104766845703z"></path><path stroke-linecap="round" stroke-linejoin="round" fill-opacity="0" stroke="rgb(186,2,2)" stroke-opacity="1" stroke-width="8" d=" M-129.44232177734375,-215.4104766845703 C-129.57571411132812,-218.22219848632812 -132.29469299316406,-220.14044189453125 -136.6822967529297,-214.4021759033203 C-131.7674560546875,-220.07711791992188 -129.5593719482422,-218.2971954345703 -129.44232177734375,-215.4104766845703z"></path></g></g><g style="display: none;" transform="matrix(1.007746934890747,0,0,0.9882305860519409,256.085205078125,288.2597351074219)" opacity="1"><g opacity="1" transform="matrix(1,0,0,1,0,0.5)"><path fill="url(#__lottie_element_196)" fill-opacity="1" d=" M-64.75237274169922,-234.20101928710938 C-66.69243621826172,-233.0681915283203 -68.77323913574219,-231.71438598632812 -68.57888793945312,-231.27874755859375 C-67.00526428222656,-232.44126892089844 -63.8974494934082,-234.56275939941406 -61.09991455078125,-234.86135864257812 C-61.26366424560547,-235.04669189453125 -62.63541030883789,-234.96649169921875 -64.75237274169922,-234.20101928710938z"></path><path stroke-linecap="round" stroke-linejoin="round" fill-opacity="0" stroke="rgb(186,2,2)" stroke-opacity="1" stroke-width="8" d=" M-64.75237274169922,-234.20101928710938 C-66.69243621826172,-233.0681915283203 -68.77323913574219,-231.71438598632812 -68.57888793945312,-231.27874755859375 C-67.00526428222656,-232.44126892089844 -63.8974494934082,-234.56275939941406 -61.09991455078125,-234.86135864257812 C-61.26366424560547,-235.04669189453125 -62.63541030883789,-234.96649169921875 -64.75237274169922,-234.20101928710938z"></path></g></g><g style="display: none;" transform="matrix(0.9306970238685608,0,0,1.06248140335083,255.2376708984375,274.0035705566406)" opacity="1"><g opacity="1" transform="matrix(1,0,0,1,0,0.5)"><path fill="url(#__lottie_element_192)" fill-opacity="1" d=" M90.09002685546875,-233.85923767089844 C89.2750015258789,-233.34683227539062 88.13267517089844,-231.58090209960938 89.77776336669922,-230.3236083984375 C91.37007904052734,-232.1470489501953 90.06952667236328,-232.98118591308594 90.09002685546875,-233.85923767089844z"></path><path stroke-linecap="round" stroke-linejoin="round" fill-opacity="0" stroke="rgb(186,2,2)" stroke-opacity="1" stroke-width="8" d=" M90.09002685546875,-233.85923767089844 C89.2750015258789,-233.34683227539062 88.13267517089844,-231.58090209960938 89.77776336669922,-230.3236083984375 C91.37007904052734,-232.1470489501953 90.06952667236328,-232.98118591308594 90.09002685546875,-233.85923767089844z"></path></g></g><g transform="matrix(0.983503520488739,0,0,1.0164965391159058,255.81854248046875,282.8326721191406)" opacity="1" style="display: block;"><g opacity="1" transform="matrix(1,0,0,1,0,0.5)"><path stroke-linecap="round" stroke-linejoin="round" fill-opacity="0" stroke="rgb(239,84,1)" stroke-opacity="1" stroke-width="16.5" d=" M-11,192 C-61.6510009765625,192 -109.58300018310547,159.968994140625 -128.80599975585938,125.76699829101562"></path></g><g opacity="1" transform="matrix(1,0,0,1,0,0.5)"><path stroke-linecap="round" stroke-linejoin="round" fill-opacity="0" stroke="rgb(239,84,1)" stroke-opacity="1" stroke-width="16.5" d=" M-11,192 C-65,192 -71.42143249511719,166.97232055664062 -90.91957092285156,157.6278839111328 C-88.02300262451172,157.35499572753906 -84.81700134277344,157.0019989013672 -81.39900207519531,156.6699981689453"></path></g><g opacity="1" transform="matrix(1,0,0,1,0,0.5)"><path stroke-linecap="round" stroke-linejoin="round" fill-opacity="0" stroke="rgb(239,84,1)" stroke-opacity="1" stroke-width="16.5" d=" M-11,192 C-23,165 -46.5,152 -63.375999450683594,164.16700744628906 C-41.5,164 -65,192 -11,192z"></path></g><g opacity="1" transform="matrix(1,0,0,1,0,0.5)"><path stroke-linecap="round" stroke-linejoin="round" fill-opacity="0" stroke="rgb(239,84,1)" stroke-opacity="1" stroke-width="16.5" d=" M-11,192 C34.49300003051758,188.23199462890625 68.42500305175781,173.822998046875 92.58599853515625,153.4239959716797"></path></g><g opacity="1" transform="matrix(1,0,0,1,0,0.5)"><path stroke-linecap="round" stroke-linejoin="round" fill-opacity="0" stroke="rgb(239,84,1)" stroke-opacity="1" stroke-width="16.5" d=" M-11.469670295715332,191.53033447265625 C44.011714935302734,191.53033447265625 65.72677612304688,154.9009246826172 76.50240325927734,160.3463897705078 C71.0770034790039,158.03500366210938 65.25299835205078,156.4040069580078 59.27799987792969,155.41799926757812"></path></g></g><g transform="matrix(0.983503520488739,0,0,1.0164965391159058,255.81854248046875,282.8326721191406)" opacity="1" style="display: block;"><g opacity="1" transform="matrix(1,0,0,1,0,0.5)"><path stroke-linecap="round" stroke-linejoin="round" fill-opacity="0" stroke="rgb(255,157,0)" stroke-opacity="1" stroke-width="16.5" d=" M-44.284000396728516,190.31500244140625 C-35.67399978637695,191.8990020751953 -24.7450008392334,192.89999389648438 -11,193 C-11,193 -11,193 -11,193 C-1.9010000228881836,192.94500732421875 6.078000068664551,192.55099487304688 13.074000358581543,191.88699340820312"></path><path fill="rgb(255,157,0)" fill-opacity="1" d=" M-44.284000396728516,190.31500244140625 C-35.67399978637695,191.8990020751953 -24.7450008392334,192.89999389648438 -11,193 C-11,193 -11,193 -11,193 C-1.9010000228881836,192.94500732421875 6.078000068664551,192.55099487304688 13.074000358581543,191.88699340820312"></path></g></g><g transform="matrix(0.983503520488739,0,0,1.0164965391159058,255.81854248046875,282.8326721191406)" opacity="1" style="display: block;"><g opacity="1" transform="matrix(1,0,0,1,0,0.5)"><path fill="url(#__lottie_element_133)" fill-opacity="1" d=" M-7.883965969085693,-198.6036834716797 C-75.72393035888672,-77.44275665283203 -184.0782470703125,-29.746824264526367 -11,192 C150.22137451171875,-0.7926207184791565 24.56169319152832,-106.58969116210938 -7.883965969085693,-198.6036834716797z"></path></g><g opacity="1" transform="matrix(1,0,0,1,0,0.5)"><path fill="url(#__lottie_element_134)" fill-opacity="1" d=" M-104.13079071044922,-61.97900390625 C-157.59478759765625,6.898859977722168 -109.67748260498047,142.0648956298828 -11,192 C81.5,-23.5 -116.84351348876953,48.72837829589844 -104.13079071044922,-61.97900390625z"></path></g><g opacity="1" transform="matrix(1,0,0,1,0,0.5)"><path fill="url(#__lottie_element_135)" fill-opacity="1" d=" M-104.13079071044922,-61.97900390625 C-72.57157135009766,-52.06424331665039 -110.07189178466797,-119.8409652709961 -7.914220333099365,-198.37985229492188 C-39.27326583862305,69.18736267089844 -141.82044982910156,50.668582916259766 -104.13079071044922,-61.97900390625z"></path></g><g opacity="1" transform="matrix(1,0,0,1,0,0.5)"><path fill="url(#__lottie_element_136)" fill-opacity="1" d=" M-133.73480224609375,78.24649810791016 C-155.04579162597656,121.76304626464844 -86.00444793701172,192 -11,192 C20.527347564697266,63.733150482177734 -115.83396911621094,130.1822509765625 -133.73480224609375,78.24649810791016z"></path></g><g opacity="1" transform="matrix(1,0,0,1,0,0.5)"><path fill="url(#__lottie_element_137)" fill-opacity="1" d=" M-90.91957092285156,157.6278839111328 C-71.42143249511719,166.97232055664062 -65,192 -11,192 C-21.612913131713867,147.56234741210938 -66.90998077392578,155.36863708496094 -90.91957092285156,157.6278839111328z"></path></g><g opacity="1" transform="matrix(1,0,0,1,0,0.5)"><path fill="url(#__lottie_element_138)" fill-opacity="1" d=" M-63.375999450683594,164.16700744628906 C-41.5,164 -65,192 -11,192 C-23,165 -46.5,152 -63.375999450683594,164.16700744628906z"></path></g><g opacity="1" transform="matrix(1,0,0,1,0,0.5)"><path fill="url(#__lottie_element_139)" fill-opacity="1" d=" M42.82596206665039,-147.29006958007812 C13.622138023376465,-35.18448257446289 -145.74395751953125,17.944656372070312 -11,192 C170.746826171875,57.161582946777344 85.53434753417969,-87.27162170410156 42.82596206665039,-147.29006958007812z"></path></g><g opacity="1" transform="matrix(1,0,0,1,0,0.5)"><path fill="url(#__lottie_element_140)" fill-opacity="1" d=" M140.60569763183594,26.105682373046875 C108.79261779785156,51.01844787597656 -10.924538612365723,43.10679626464844 -11,192 C108.61769104003906,182.0922393798828 148.3085174560547,98.62213897705078 140.60569763183594,26.105682373046875z"></path></g><g opacity="1" transform="matrix(1,0,0,1,0,0.5)"><path fill="url(#__lottie_element_141)" fill-opacity="1" d=" M76.50240325927734,160.3463897705078 C41.11052703857422,145.26495361328125 -11.278228759765625,159.19834899902344 -11.469670295715332,191.53033447265625 C44.011714935302734,191.53033447265625 65.72677612304688,154.9009246826172 76.50240325927734,160.3463897705078z"></path></g><g opacity="1" transform="matrix(1,0,0,1,0,0.5)"><path fill="url(#__lottie_element_142)" fill-opacity="1" d=" M-133.77525329589844,78.23262023925781 C-124.23314666748047,91.33403778076172 -112.11336517333984,100.08780670166016 -111.96953582763672,84.12242889404297 C-116.50630950927734,57.35599136352539 -152.69647216796875,5.451017379760742 -104.13789367675781,-61.58269119262695 C-31.12913703918457,110.41030883789062 -96.80729675292969,163.0211181640625 -133.77525329589844,78.23262023925781z"></path></g><g opacity="1" transform="matrix(1,0,0,1,0,0.5)"><path fill="url(#__lottie_element_143)" fill-opacity="1" d=" M-90.986572265625,157.45394897460938 C-66.97120666503906,169.0277862548828 -143.42588806152344,134.55789184570312 -133.64923095703125,78.14568328857422 C-137.83285522460938,100.81950378417969 -66.08889770507812,184.57135009765625 -90.986572265625,157.45394897460938z"></path></g><g opacity="1" transform="matrix(1,0,0,1,0,0.5)"><path fill="url(#__lottie_element_144)" fill-opacity="1" d=" M-39.94300079345703,164.8939971923828 C-37.5,174 -3.75,191.75 -43.95800018310547,166.25 C-36.5,170 -60,162 -39.94300079345703,164.8939971923828z"></path></g><g opacity="1" transform="matrix(1,0,0,1,0,0.5)"><path fill="url(#__lottie_element_145)" fill-opacity="1" d=" M44.474891662597656,-145.90509033203125 C40.673763275146484,-142.11492919921875 37.036407470703125,-139.2138214111328 33.57387161254883,-137.09303283691406 C-0.54368656873703,-116.19823455810547 -17.71848487854004,-171.09356689453125 -7.611910820007324,-198.49600219726562 C-82.86302185058594,-23.34810447692871 51.81135559082031,-82.82666015625 44.474891662597656,-145.90509033203125z"></path><path fill="url(#__lottie_element_146)" fill-opacity="1" d=" M44.474891662597656,-145.90509033203125 C40.673763275146484,-142.11492919921875 37.036407470703125,-139.2138214111328 33.57387161254883,-137.09303283691406 C-0.54368656873703,-116.19823455810547 -17.71848487854004,-171.09356689453125 -7.611910820007324,-198.49600219726562 C-82.86302185058594,-23.34810447692871 51.81135559082031,-82.82666015625 44.474891662597656,-145.90509033203125z"></path></g><g opacity="1" transform="matrix(1,0,0,1,0,0.5)"><path fill="url(#__lottie_element_147)" fill-opacity="1" d=" M140.60569763183594,26.105682373046875 C128.277099609375,37.08648681640625 114.47577667236328,43.2515869140625 102.59403991699219,38.55113983154297 C66.15430450439453,21.8953857421875 97.25302124023438,-111.83061218261719 42.75497055053711,-146.7110595703125 C28.99048614501953,-11.260153770446777 89.14693450927734,165.0279998779297 140.60569763183594,26.105682373046875z"></path></g><g opacity="1" transform="matrix(1,0,0,1,0,0.5)"><path fill="url(#__lottie_element_148)" fill-opacity="1" d=" M76.79096984863281,160.0034942626953 C73.31211853027344,158.0859375 72.45879364013672,155.80419921875 73.24092864990234,152.8893585205078 C76.05115509033203,136.69949340820312 118.134765625,93.3033218383789 140.96661376953125,26.93575668334961 C81.60813903808594,70.34574127197266 -4.465328693389893,173.4214324951172 76.79096984863281,160.0034942626953z"></path></g></g><g transform="matrix(0.983503520488739,0,0,1.0164965391159058,255.81854248046875,282.8326721191406)" opacity="1" style="display: block;"><g opacity="1" transform="matrix(1,0,0,1,0,0)"><path fill="url(#__lottie_element_151)" fill-opacity="1" d=" M-11,192 C99.05534362792969,-29.3734130859375 5.990450859069824,-76.94465637207031 -16.464757919311523,-154.56678771972656 C-43.55789566040039,-100.01399993896484 -133.1335906982422,-96.79707336425781 -11,192z"></path></g><g opacity="1" transform="matrix(1,0,0,1,0,0)"><path fill="url(#__lottie_element_152)" fill-opacity="1" d=" M-11,192 C117.16603088378906,53.93575668334961 54.285621643066406,-46.1564826965332 40.13114547729492,-106.12069702148438 C25.262723922729492,-56.548343658447266 -103.8546371459961,-91.66571044921875 -11,192z"></path></g><g opacity="1" transform="matrix(1,0,0,1,0,0)"><path fill="url(#__lottie_element_153)" fill-opacity="1" d=" M-11,192 C77.2719497680664,161 87.03211975097656,84.0324478149414 89.86476135253906,60.644248962402344 C71.5114517211914,76.3272933959961 0.4701029658317566,55.55789566040039 -11,192z"></path></g><g opacity="1" transform="matrix(1,0,0,1,0,0)"><path fill="url(#__lottie_element_154)" fill-opacity="1" d=" M-11,192 C64.89630889892578,179.71438598632812 91.11736297607422,122.43782043457031 109.80718994140625,108.82267761230469 C84.25572204589844,104.9332046508789 -6.461991310119629,102.41142272949219 -11,192z"></path></g><g opacity="1" transform="matrix(1,0,0,1,0,0)"><path fill="url(#__lottie_element_155)" fill-opacity="1" d=" M-11,192 C42.36513900756836,192 33.81679153442383,173.05128479003906 47.826751708984375,160.4378204345703 C26.7983455657959,155.5501708984375 -11,163.5 -11,192z"></path></g><g opacity="1" transform="matrix(1,0,0,1,0,0)"><path fill="url(#__lottie_element_156)" fill-opacity="1" d=" M-16.342910766601562,-152.40074157714844 C-46.88196563720703,4.977536201477051 31.790395736694336,-32.273685455322266 41.736202239990234,-103.76265716552734 C37.31858825683594,-101.3392562866211 32.811073303222656,-100.0989990234375 28.35365867614746,-99.86043548583984 C4.87028169631958,-98.60261535644531 -16.076038360595703,-124.83946990966797 -16.342910766601562,-152.40074157714844z"></path></g><g opacity="1" transform="matrix(1,0,0,1,0,0)"><path fill="url(#__lottie_element_157)" fill-opacity="1" d=" M40.670101165771484,-105.07981872558594 C-7.157840251922607,65.65870666503906 45.787845611572266,141.017333984375 89.86476135253906,60.644248962402344 C85.2030029296875,65.77826690673828 72.71118927001953,66.76234436035156 65.54407501220703,62.16397476196289 C46.46099853515625,45.81007385253906 69.23027801513672,-33.80629348754883 40.670101165771484,-105.07981872558594z"></path></g><g opacity="1" transform="matrix(1,0,0,1,0,0)"><path fill="url(#__lottie_element_158)" fill-opacity="1" d=" M89.50509643554688,60.69321823120117 C26.783559799194336,128.60032653808594 75.96484375,139.9929962158203 109.80718994140625,108.82267761230469 C106.93234252929688,108.55658721923828 94.8054428100586,107.40736389160156 90.4293212890625,104.26227569580078 C81.55094146728516,98.11688995361328 89.11624908447266,81.70109558105469 89.50509643554688,60.69321823120117z"></path></g><g opacity="1" transform="matrix(1,0,0,1,0,0)"><path fill="url(#__lottie_element_159)" fill-opacity="1" d=" M-11,192 C-11,71.81838989257812 -66.70149230957031,141.05088806152344 -103.1039047241211,107.22503662109375 C-101.00889587402344,161.48410034179688 -50.32251739501953,192 -11,192z"></path></g><g opacity="1" transform="matrix(1,0,0,1,0,0)"><path fill="url(#__lottie_element_160)" fill-opacity="1" d=" M-11,192 C7.679296493530273,-10.780661582946777 -67.23445892333984,67.43675994873047 -98.90335083007812,-8.519242286682129 C-124.58942413330078,47.666866302490234 -72.24710845947266,130.59844970703125 -11,192z"></path></g><g opacity="1" transform="matrix(1,0,0,1,0,0)"><path fill="url(#__lottie_element_161)" fill-opacity="1" d=" M-11,192 C-13.71660327911377,153.6095733642578 -41.69465637207031,175.99888610839844 -57.7398796081543,163.38136291503906 C-52.359413146972656,186.86863708496094 -42,192 -11,192z"></path></g><g opacity="1" transform="matrix(1,0,0,1,0,0)"><path fill="url(#__lottie_element_162)" fill-opacity="1" d=" M-99.0796890258789,-7.101997375488281 C-109.1986083984375,22.957487106323242 -89.10677337646484,67.53553009033203 -85.74427795410156,93.7634506225586 C-85.0432357788086,110.02352142333984 -93.94354248046875,115.64384460449219 -103.0377197265625,107.15885925292969 C-32.135250091552734,176.98973083496094 -47.71692657470703,131.42340087890625 -99.0796890258789,-7.101997375488281z"></path></g><g opacity="1" transform="matrix(1,0,0,1,0,0)"><path fill="url(#__lottie_element_163)" fill-opacity="1" d=" M-55.541465759277344,-35.4442138671875 C-56.49555206298828,-20.36497688293457 -45.824928283691406,30.7821102142334 -100.72303771972656,-7.967564582824707 C-37.684181213378906,178.08114624023438 13.347640037536621,13.0911283493042 -55.541465759277344,-35.4442138671875z"></path></g></g><g transform="matrix(0.983503520488739,0,0,1.0164965391159058,255.81854248046875,282.8326721191406)" opacity="0.3" style="display: block;"><g opacity="1" transform="matrix(1,0,0,1,0,0)"><path fill="url(#__lottie_element_182)" fill-opacity="1" d=" M-12.495550155639648,-98.64630889892578 C-18.898860931396484,-58.58079147338867 -99.0597915649414,-44.027347564697266 -12,192.4290008544922 C78.3276138305664,94.07823944091797 6.612588882446289,-14.884861946105957 -12.495550155639648,-98.64630889892578z M33.611244201660156,-53.74689483642578 C31.99441909790039,-42.953495025634766 17.539342880249023,-24.652551651000977 4.147613048553467,-36.94279098510742 C-19.185731887817383,-43.96846389770508 -63.66352462768555,5.072843074798584 -12,192.4290008544922 C52.368961334228516,124.26272583007812 56.11513900756836,8.055344581604004 33.611244201660156,-53.74689483642578z M65.79723358154297,78.06234741210938 C58.72331619262695,81.43804168701172 44.49777603149414,76.8734130859375 44.86470413208008,60.2000846862793 C43.38913345336914,31.12362289428711 -25.118391036987305,94.75853729248047 -12,192.4290008544922 C6.035783767700195,137.5438995361328 90.65314483642578,167.64280700683594 65.79723358154297,78.06234741210938z M-77.62042236328125,54.52955627441406 C-82.23657989501953,113.35496520996094 -40.99240493774414,143.08189392089844 -12,192.4290008544922 C-9.154999732971191,136.64100646972656 -42.062252044677734,10.3257474899292 -47.45808029174805,30.365999221801758 C-49.040748596191406,63.72511672973633 -61.74342346191406,56.76655578613281 -77.62042236328125,54.52955627441406z M-71.79545593261719,122.23410034179688 C-67.06314086914062,147.32789611816406 -54.540748596191406,176.09487915039062 -12,192.4290008544922 C-9.154999732971191,136.64100646972656 -35.95027160644531,88.88208770751953 -38.6096076965332,99.99292755126953 C-45.40053939819336,114.02375030517578 -66.8676986694336,112.19219207763672 -71.79545593261719,122.23410034179688z"></path></g></g><g transform="matrix(0.983503520488739,0,0,1.0164965391159058,256.8020324707031,282.3965759277344)" opacity="1" style="display: block;"><g opacity="1" transform="matrix(1,0,0,1,0,0)"><path fill="url(#__lottie_element_166)" fill-opacity="1" d=" M-16.97603988647461,-20.054792404174805 C-9.598475456237793,48.74322509765625 -76.53723907470703,35.13095474243164 -12,192.4290008544922 C77.25137329101562,61.45643997192383 -8.856226921081543,24.511938095092773 -16.97603988647461,-20.054792404174805z"></path></g><g opacity="1" transform="matrix(1,0,0,1,0,0)"><path fill="url(#__lottie_element_167)" fill-opacity="1" d=" M23.12102508544922,4.585403919219971 C17.202930450439453,37.087791442871094 -60.832855224609375,52.1302490234375 -12,192.4290008544922 C53.80406951904297,97.72248840332031 30.38963508605957,78.52767181396484 23.12102508544922,4.585403919219971z"></path></g><g opacity="1" transform="matrix(1,0,0,1,0,0)"><path fill="url(#__lottie_element_168)" fill-opacity="1" d=" M59.50811004638672,91.50238800048828 C33.06456756591797,95.63136291503906 -16.5,82.5 -12,192.4290008544922 C41.647586822509766,167.225830078125 36.29039764404297,135.2601776123047 59.50811004638672,91.50238800048828z"></path></g><g opacity="1" transform="matrix(1,0,0,1,0,0)"><path fill="url(#__lottie_element_169)" fill-opacity="1" d=" M69.70793914794922,119.79500579833984 C48.471214294433594,123.77306365966797 -10.161258697509766,101.51622009277344 -12,192.4290008544922 C27.460878372192383,180.5070037841797 59.519561767578125,138.29373168945312 69.70793914794922,119.79500579833984z"></path></g><g opacity="1" transform="matrix(1,0,0,1,0,0)"><path fill="url(#__lottie_element_170)" fill-opacity="1" d=" M36.25,154.75 C19.5,147 4.5,145.5 -12,192.4290008544922 C25.25,192 15,179.75 36.25,154.75z"></path></g><g opacity="1" transform="matrix(1,0,0,1,0,0)"><path fill="url(#__lottie_element_171)" fill-opacity="1" d=" M22.836870193481445,5.120422840118408 C20.028182983398438,28.595550537109375 9.799257278442383,-12.84779167175293 -17.19878387451172,-19.594942092895508 C-7.438210487365723,52.19907760620117 31.670907974243164,77.9332046508789 22.836870193481445,5.120422840118408z"></path></g><g opacity="1" transform="matrix(1,0,0,1,0,0)"><path fill="url(#__lottie_element_172)" fill-opacity="1" d=" M59.50811004638672,91.50238800048828 C33.06456756591797,95.63136291503906 29.31584358215332,45.4981803894043 23.073793411254883,5.138981342315674 C4.663808345794678,104.07658386230469 33.87563705444336,139.14129638671875 59.50811004638672,91.50238800048828z"></path></g><g opacity="1" transform="matrix(1,0,0,1,0,0)"><path fill="url(#__lottie_element_173)" fill-opacity="1" d=" M69.70793914794922,119.79500579833984 C49.85830307006836,121.76336669921875 53.363372802734375,102.19247436523438 59.28957748413086,91.55155944824219 C11.03201675415039,122.79058837890625 56.69489669799805,141.24758911132812 69.70793914794922,119.79500579833984z"></path></g><g opacity="1" transform="matrix(1,0,0,1,0,0)"><path fill="url(#__lottie_element_174)" fill-opacity="1" d=" M-61.43654251098633,140.20753479003906 C-54.58857727050781,152.67454528808594 -55.19115447998047,177.36920166015625 -12,192.4290008544922 C-2.6924307346343994,136.8393096923828 -41.74188995361328,135.92105102539062 -61.43654251098633,140.20753479003906z"></path></g><g opacity="1" transform="matrix(1,0,0,1,0,0)"><path fill="url(#__lottie_element_175)" fill-opacity="1" d=" M-62.1529541015625,87.10820770263672 C-66.66703796386719,103.84888458251953 -62.45814514160156,139.07870483398438 -12,192.4290008544922 C15.439030647277832,90.59239959716797 -44.96213912963867,102.32182312011719 -62.1529541015625,87.10820770263672z"></path></g><g opacity="1" transform="matrix(1,0,0,1,0,0)"><path fill="url(#__lottie_element_176)" fill-opacity="1" d=" M-49.875,163.25 C-37.875,174.4290008544922 -43.5,192.4290008544922 -12,192.4290008544922 C-7.25,159.4290008544922 -36.125,151.9290008544922 -49.875,163.25z"></path></g><g opacity="1" transform="matrix(1,0,0,1,0,0)"><path fill="url(#__lottie_element_177)" fill-opacity="1" d=" M-61.134700775146484,140.05662536621094 C-54.28673553466797,143.16644287109375 16.611244201660156,148.7428436279297 -33.721771240234375,80.93099212646484 C-34.36458206176758,93.7616195678711 -46.61752700805664,135.812744140625 -61.134700775146484,140.05662536621094z"></path></g><g opacity="1" transform="matrix(1,0,0,1,0,0)"><path fill="url(#__lottie_element_178)" fill-opacity="1" d=" M-62.36418914794922,87.32617950439453 C-63.36418914794922,101.75518035888672 4.481551647186279,201.25390625 -32.26844787597656,61.75390625 C-39.456268310546875,77.21478271484375 -29.830629348754883,95.01901245117188 -62.36418914794922,87.32617950439453z"></path></g></g></g></svg>