<svg xmlns="http://www.w3.org/2000/svg" xmlns:xlink="http://www.w3.org/1999/xlink" viewBox="0 0 600 436" width="600" height="436" preserveAspectRatio="xMidYMid meet" style="width: 100%; height: 100%; transform: translate3d(0px, 0px, 0px); content-visibility: visible;"><defs><clipPath id="__lottie_element_233"><rect width="600" height="436" x="0" y="0"></rect></clipPath></defs><g clip-path="url(#__lottie_element_233)"><g transform="matrix(0.8626528978347778,0,0,0.8626528978347778,110.21636962890625,36.41156005859375)" opacity="1" style="display: block;"><g opacity="1" transform="matrix(1,0,0,1,219.76400756835938,210.45899963378906)"><path fill="rgb(255,84,84)" fill-opacity="1" d=" M217.9709930419922,-88.44400024414062 C219.51400756835938,-153.70899963378906 167.67799377441406,-209.02200317382812 102.39700317382812,-209.72900390625 C58.689998626708984,-210.20599365234375 20.454999923706055,-186.67799377441406 -0.0020000000949949026,-151.5260009765625 C-20.46299934387207,-186.67799377441406 -58.68899917602539,-210.20899963378906 -102.4000015258789,-209.72900390625 C-167.6820068359375,-209.02200317382812 -219.51400756835938,-153.70899963378906 -217.97500610351562,-88.44400024414062 C-214.52499389648438,57.39899826049805 -40.09600067138672,184.2550048828125 -5.814000129699707,207.79800415039062 C-2.309999942779541,210.20799255371094 2.306999921798706,210.20799255371094 5.810999870300293,207.79800415039062 C40.09199905395508,184.2550048828125 214.5260009765625,57.39899826049805 217.9709930419922,-88.44400024414062z"></path></g><g opacity="1" transform="matrix(1,0,0,1,302.4200134277344,212.4429931640625)"><path fill="rgb(247,43,43)" fill-opacity="1" d=" M135.3730010986328,-94.79100036621094 C135.3730010986328,52.86399841308594 -42.178001403808594,182.00100708007812 -76.84200286865234,205.8070068359375 C-80.3499984741211,208.2169952392578 -84.97000122070312,208.22799682617188 -88.48200225830078,205.81700134277344 C-97.02200317382812,199.95399475097656 -114.25599670410156,187.68099975585938 -135.37399291992188,170.3070068359375 C-100.56400299072266,146.38499450683594 76.7490005493164,17.31800079345703 76.7490005493164,-130.2429962158203 C76.7490005493164,-160.21600341796875 65.48200225830078,-187.56100463867188 46.93899917602539,-208.22900390625 C97.74800109863281,-195.50599670410156 135.3730010986328,-149.56100463867188 135.3730010986328,-94.79100036621094z"></path></g></g><g transform="matrix(1,0,0,1,44,97)" opacity="1" style="display: block;"><g opacity="1" transform="matrix(1,0,0,1,255.75,120.802001953125)"><path fill="rgb(95,218,255)" fill-opacity="1" d=" M-1.4490000009536743,120.552001953125 C-7.789000034332275,120.552001953125 -13.234000205993652,116.04399871826172 -14.413999557495117,109.80599975585938 C-14.413999557495117,109.80599975585938 -46.62099838256836,-61.29499816894531 -46.62099838256836,-61.29499816894531 C-46.62099838256836,-61.29499816894531 -80.8949966430664,20.155000686645508 -80.8949966430664,20.155000686645508 C-82.89099884033203,24.899999618530273 -87.46099853515625,28.04800033569336 -92.60199737548828,28.219999313354492 C-97.75399780273438,28.395999908447266 -102.5199966430664,25.56399917602539 -104.83200073242188,20.965999603271484 C-104.83200073242188,20.965999603271484 -113.99600219726562,2.755000114440918 -113.99600219726562,2.755000114440918 C-113.99600219726562,2.755000114440918 -242.31199645996094,2.755000114440918 -242.31199645996094,2.755000114440918 C-249.593994140625,2.755000114440918 -255.5,-3.1500000953674316 -255.5,-10.430999755859375 C-255.5,-17.719999313354492 -249.593994140625,-23.62299919128418 -242.31199645996094,-23.62299919128418 C-242.31199645996094,-23.62299919128418 -105.86699676513672,-23.62299919128418 -105.86699676513672,-23.62299919128418 C-100.90599822998047,-23.62299919128418 -96.37100219726562,-20.841999053955078 -94.12100219726562,-16.427000045776367 C-94.12100219726562,-16.427000045776367 -53.93000030517578,-111.93099975585938 -53.93000030517578,-111.93099975585938 C-51.672000885009766,-117.302001953125 -46.15999984741211,-120.552001953125 -40.37900161743164,-119.93099975585938 C-34.58599853515625,-119.31900024414062 -29.891000747680664,-114.98200225830078 -28.80900001525879,-109.26000213623047 C-28.80900001525879,-109.26000213623047 -2.253999948501587,31.82900047302246 -2.253999948501587,31.82900047302246 C-2.253999948501587,31.82900047302246 8.73900032043457,-34.185001373291016 8.73900032043457,-34.185001373291016 C9.793000221252441,-40.54999923706055 15.29699993133545,-45.2130012512207 21.742000579833984,-45.2130012512207 C21.742000579833984,-45.2130012512207 64.78900146484375,-45.2130012512207 64.78900146484375,-45.2130012512207 C69.25,-45.2130012512207 73.41000366210938,-42.95899963378906 75.83999633789062,-39.2239990234375 C75.83999633789062,-39.2239990234375 96.0510025024414,-8.201000213623047 96.0510025024414,-8.201000213623047 C96.0510025024414,-8.201000213623047 104.7699966430664,-18.805999755859375 104.7699966430664,-18.805999755859375 C107.27799987792969,-21.85700035095215 111.01599884033203,-23.62299919128418 114.96099853515625,-23.62299919128418 C114.96099853515625,-23.62299919128418 242.31300354003906,-23.62299919128418 242.31300354003906,-23.62299919128418 C249.593994140625,-23.62299919128418 255.5,-17.716999053955078 255.5,-10.430999755859375 C255.5,-3.1500000953674316 249.593994140625,2.755000114440918 242.31300354003906,2.755000114440918 C242.31300354003906,2.755000114440918 121.19599914550781,2.755000114440918 121.19599914550781,2.755000114440918 C121.19599914550781,2.755000114440918 105.01599884033203,22.43899917602539 105.01599884033203,22.43899917602539 C102.3479995727539,25.684999465942383 98.28900146484375,27.465999603271484 94.0979995727539,27.23699951171875 C89.89900207519531,27.0049991607666 86.06700134277344,24.785999298095703 83.77400207519531,21.267000198364258 C83.77400207519531,21.267000198364258 57.64500045776367,-18.833999633789062 57.64500045776367,-18.833999633789062 C57.64500045776367,-18.833999633789062 32.922000885009766,-18.833999633789062 32.922000885009766,-18.833999633789062 C32.922000885009766,-18.833999633789062 11.559000015258789,109.52999877929688 11.559000015258789,109.52999877929688 C10.51200008392334,115.83699798583984 5.085999965667725,120.48200225830078 -1.309000015258789,120.5479965209961 C-1.3550000190734863,120.5479965209961 -1.406000018119812,120.552001953125 -1.4490000009536743,120.552001953125z"></path></g></g><g transform="matrix(1,0,0,1,-19.094579696655273,183.80007934570312)" opacity="1" style="display: block;"><g opacity="1" transform="matrix(1,0,0,1,21.75,21.75)"><path fill="rgb(255,255,255)" fill-opacity="1" d=" M21.5,0 C21.5,11.87399959564209 11.87399959564209,21.5 0,21.5 C-11.87399959564209,21.5 -21.5,11.87399959564209 -21.5,0 C-21.5,-11.87399959564209 -11.87399959564209,-21.5 0,-21.5 C11.87399959564209,-21.5 21.5,-11.87399959564209 21.5,0z"></path></g></g></g></svg>